<svg width="64" height="64" viewBox="0 0 64 64" fill="none" xmlns="http://www.w3.org/2000/svg">
<rect width="63.9962" height="63.9962" rx="9.27481" fill="#101010"/>
<path d="M24.3854 47.4511H18.224V27.6098H24.3854V47.4511ZM21.3014 24.9032C19.3312 24.9032 17.7332 23.2714 17.7332 21.3012C17.7332 20.3548 18.1091 19.4472 18.7783 18.778C19.4474 18.1088 20.355 17.7329 21.3014 17.7329C22.2478 17.7329 23.1554 18.1088 23.8245 18.778C24.4937 19.4472 24.8696 20.3548 24.8696 21.3012C24.8696 23.2714 23.2709 24.9032 21.3014 24.9032ZM47.4453 47.4511H41.2973V37.7924C41.2973 35.4906 41.2508 32.5386 38.0939 32.5386C34.8905 32.5386 34.3996 35.0395 34.3996 37.6266V47.4511H28.2449V27.6098H34.1541V30.3163H34.2404C35.0629 28.7574 37.0723 27.1122 40.07 27.1122C46.3057 27.1122 47.452 31.2185 47.452 36.5519V47.4511H47.4453Z" fill="#F2F2F2"/>
</svg>
