<svg width="65" height="64" viewBox="0 0 65 64" fill="none" xmlns="http://www.w3.org/2000/svg">
<rect x="0.501953" width="63.9962" height="63.9962" rx="9.98826" fill="#101010"/>
<g clip-path="url(#clip0_94_368)">
<path d="M26.8788 41.6795C26.8788 41.8164 26.7214 41.9259 26.5228 41.9259C26.2969 41.9465 26.1394 41.8369 26.1394 41.6795C26.1394 41.5425 26.2969 41.433 26.4954 41.433C26.7008 41.4124 26.8788 41.522 26.8788 41.6795ZM24.7495 41.3714C24.7016 41.5083 24.8385 41.6658 25.0439 41.7069C25.2219 41.7753 25.4273 41.7069 25.4684 41.5699C25.5095 41.433 25.3794 41.2755 25.174 41.2139C24.996 41.166 24.7974 41.2344 24.7495 41.3714ZM27.7758 41.255C27.5772 41.3029 27.4403 41.433 27.4608 41.5905C27.4814 41.7274 27.6594 41.8164 27.8648 41.7685C28.0633 41.7205 28.2003 41.5905 28.1797 41.4535C28.1592 41.3234 27.9743 41.2344 27.7758 41.255ZM32.281 15.0181C22.7845 15.0181 15.52 22.2277 15.52 31.7242C15.52 39.3173 20.2991 45.8149 27.1253 48.1018C28.0017 48.2592 28.3098 47.7183 28.3098 47.2733C28.3098 46.8488 28.2893 44.5072 28.2893 43.0694C28.2893 43.0694 23.4965 44.0964 22.49 41.029C22.49 41.029 21.7095 39.0366 20.5866 38.5231C20.5866 38.5231 19.0187 37.4481 20.6962 37.4687C20.6962 37.4687 22.401 37.6056 23.3391 39.2352C24.8385 41.878 27.3513 41.118 28.3304 40.6661C28.4878 39.5707 28.9329 38.8107 29.4258 38.3588C25.5985 37.9343 21.7369 37.3797 21.7369 30.7931C21.7369 28.9102 22.2573 27.9653 23.3527 26.7603C23.1747 26.3153 22.5928 24.4803 23.5308 22.1113C24.9617 21.6663 28.255 23.96 28.255 23.96C29.6244 23.5766 31.0965 23.378 32.5548 23.378C34.0132 23.378 35.4853 23.5766 36.8546 23.96C36.8546 23.96 40.1479 21.6595 41.5789 22.1113C42.5169 24.4872 41.9349 26.3153 41.7569 26.7603C42.8524 27.9722 43.5234 28.917 43.5234 30.7931C43.5234 37.4002 39.4906 37.9274 35.6633 38.3588C36.2932 38.8997 36.8272 39.9267 36.8272 41.5357C36.8272 43.843 36.8067 46.6982 36.8067 47.2596C36.8067 47.7046 37.1216 48.2455 37.9912 48.0881C44.838 45.8149 49.4801 39.3173 49.4801 31.7242C49.4801 22.2277 41.7775 15.0181 32.281 15.0181ZM22.1751 38.6326C22.0861 38.7011 22.1066 38.8586 22.223 38.9887C22.3326 39.0982 22.49 39.1462 22.5791 39.0571C22.6681 38.9887 22.6475 38.8312 22.5311 38.7011C22.4216 38.5916 22.2641 38.5436 22.1751 38.6326ZM21.4356 38.0781C21.3877 38.1671 21.4562 38.2766 21.5931 38.3451C21.7027 38.4135 21.8396 38.393 21.8875 38.2971C21.9355 38.2081 21.867 38.0986 21.7301 38.0301C21.5931 37.989 21.4836 38.0096 21.4356 38.0781ZM23.654 40.5155C23.5445 40.6045 23.5855 40.8099 23.743 40.94C23.9005 41.0975 24.099 41.118 24.1881 41.0085C24.2771 40.9195 24.236 40.7141 24.099 40.584C23.9484 40.4265 23.743 40.406 23.654 40.5155ZM22.8735 39.509C22.7639 39.5775 22.7639 39.7555 22.8735 39.913C22.983 40.0705 23.1679 40.1389 23.2569 40.0705C23.3664 39.9815 23.3664 39.8034 23.2569 39.646C23.161 39.4885 22.983 39.42 22.8735 39.509Z" fill="#F2F2F2"/>
</g>
<defs>
<clipPath id="clip0_94_368">
<rect width="33.9601" height="33.9601" fill="white" transform="translate(15.52 15.0181)"/>
</clipPath>
</defs>
</svg>
