<svg width="64" height="64" viewBox="0 0 64 64" fill="none" xmlns="http://www.w3.org/2000/svg">
<rect x="0.00390625" width="63.9962" height="63.9962" rx="9.98826" fill="#101010"/>
<path fill-rule="evenodd" clip-rule="evenodd" d="M44.3526 19.6472C46.9106 19.6472 48.9841 21.7208 48.9841 24.2787V39.7171C48.9841 42.275 46.9106 44.3486 44.3526 44.3486H19.6513C17.0934 44.3486 15.0198 42.275 15.0198 39.7171V24.2787C15.0198 21.7208 17.0934 19.6472 19.6513 19.6472H44.3526ZM43.1992 22.7349H20.8048L31.0454 30.8195C31.6063 31.2624 32.3976 31.2624 32.9587 30.8195L43.1992 22.7349ZM18.1074 24.5393V39.7171C18.1074 40.5697 18.7986 41.2609 19.6513 41.2609H44.3526C45.2053 41.2609 45.8965 40.5697 45.8965 39.7171V24.5393L34.8718 33.243C33.1892 34.5715 30.8147 34.5715 29.1321 33.243L18.1074 24.5393Z" fill="#F2F2F2"/>
</svg>
