<svg width="64" height="64" viewBox="0 0 64 64" fill="none" xmlns="http://www.w3.org/2000/svg">
<rect x="0.00390625" width="63.9962" height="63.9962" rx="9.98826" fill="white"/>
<path fill-rule="evenodd" clip-rule="evenodd" d="M44.3529 19.6472C46.9108 19.6472 48.9844 21.7208 48.9844 24.2787V39.7171C48.9844 42.275 46.9108 44.3486 44.3529 44.3486H19.6515C17.0936 44.3486 15.02 42.275 15.02 39.7171V24.2787C15.02 21.7208 17.0936 19.6472 19.6515 19.6472H44.3529ZM43.1995 22.7349H20.805L31.0456 30.8195C31.6065 31.2624 32.3979 31.2624 32.9589 30.8195L43.1995 22.7349ZM18.1077 24.5393V39.7171C18.1077 40.5697 18.7989 41.2609 19.6515 41.2609H44.3529C45.2055 41.2609 45.8967 40.5697 45.8967 39.7171V24.5393L34.872 33.243C33.1894 34.5715 30.815 34.5715 29.1324 33.243L18.1077 24.5393Z" fill="#272727"/>
</svg>
