<svg width="64" height="64" viewBox="0 0 64 64" fill="none" xmlns="http://www.w3.org/2000/svg">
<rect width="63.9962" height="63.9962" rx="9.27481" fill="white"/>
<path d="M24.3851 47.4511H18.2238V27.6098H24.3851V47.4511ZM21.3012 24.9032C19.331 24.9032 17.7329 23.2714 17.7329 21.3012C17.7329 20.3548 18.1088 19.4472 18.778 18.778C19.4472 18.1088 20.3548 17.7329 21.3012 17.7329C22.2475 17.7329 23.1551 18.1088 23.8243 18.778C24.4935 19.4472 24.8694 20.3548 24.8694 21.3012C24.8694 23.2714 23.2707 24.9032 21.3012 24.9032ZM47.4451 47.4511H41.297V37.7924C41.297 35.4906 41.2506 32.5386 38.0936 32.5386C34.8902 32.5386 34.3993 35.0395 34.3993 37.6266V47.4511H28.2446V27.6098H34.1539V30.3163H34.2401C35.0627 28.7574 37.072 27.1122 40.0698 27.1122C46.3054 27.1122 47.4517 31.2185 47.4517 36.5519V47.4511H47.4451Z" fill="#272727"/>
</svg>
