<svg width="405" height="405" viewBox="0 0 405 405" fill="none" xmlns="http://www.w3.org/2000/svg">
<path d="M358.594 202.5C358.594 288.708 288.708 358.594 202.5 358.594V383.906C302.689 383.906 383.906 302.689 383.906 202.5H358.594ZM202.5 358.594C116.292 358.594 46.4062 288.708 46.4062 202.5H21.0938C21.0938 302.689 102.312 383.906 202.5 383.906V358.594ZM46.4062 202.5C46.4062 116.292 116.292 46.4062 202.5 46.4062V21.0938C102.312 21.0938 21.0938 102.312 21.0938 202.5H46.4062ZM261.562 240.469C207.974 240.469 164.531 197.026 164.531 143.438H139.219C139.219 211.007 193.993 265.781 261.562 265.781V240.469ZM344.677 193.539C327.665 221.692 296.801 240.469 261.562 240.469V265.781C306.026 265.781 344.937 242.053 366.343 206.629L344.677 193.539ZM164.531 143.438C164.531 108.199 183.308 77.3348 211.461 60.3226L198.371 38.6581C162.947 60.0632 139.219 98.9734 139.219 143.438H164.531ZM202.5 46.4062C201.007 46.4062 199.255 45.7326 197.984 44.4096C196.908 43.2889 196.658 42.2287 196.599 41.7999C196.528 41.2741 196.563 39.7502 198.371 38.6581L211.461 60.3226C219.952 55.1922 222.682 45.7984 221.683 38.4121C220.647 30.7338 214.593 21.0938 202.5 21.0938V46.4062ZM366.343 206.629C365.249 208.437 363.725 208.472 363.201 208.401C362.772 208.342 361.711 208.092 360.59 207.016C359.267 205.745 358.594 203.993 358.594 202.5H383.906C383.906 190.407 374.266 184.353 366.587 183.317C359.201 182.318 349.807 185.048 344.677 193.539L366.343 206.629Z" fill="#101010"/>
</svg>
