<svg width="405" height="405" viewBox="0 0 405 405" fill="none" xmlns="http://www.w3.org/2000/svg">
<path d="M276.75 202.5C276.75 243.507 243.507 276.75 202.5 276.75C161.493 276.75 128.25 243.507 128.25 202.5C128.25 161.493 161.493 128.25 202.5 128.25C243.507 128.25 276.75 161.493 276.75 202.5Z" stroke="white" stroke-width="20.25"/>
<path fill-rule="evenodd" clip-rule="evenodd" d="M202.5 21.0938C209.49 21.0938 215.156 26.7602 215.156 33.75V67.5C215.156 74.4898 209.49 80.1562 202.5 80.1562C195.51 80.1562 189.844 74.4898 189.844 67.5V33.75C189.844 26.7602 195.51 21.0938 202.5 21.0938ZM61.9085 62.709C66.625 57.5503 74.6305 57.1919 79.7892 61.9085L117.286 96.1916C122.444 100.908 122.803 108.913 118.086 114.072C113.37 119.231 105.364 119.589 100.205 114.873L62.709 80.5898C57.5503 75.8732 57.1919 67.8677 61.9085 62.709ZM343.092 62.709C347.809 67.8677 347.449 75.8732 342.291 80.5898L304.795 114.873C299.636 119.589 291.63 119.231 286.914 114.072C282.197 108.913 282.555 100.908 287.714 96.1916L325.212 61.9085C330.37 57.1919 338.374 57.5503 343.092 62.709ZM21.0938 202.5C21.0938 195.51 26.7602 189.844 33.75 189.844H67.5C74.4898 189.844 80.1562 195.51 80.1562 202.5C80.1562 209.49 74.4898 215.156 67.5 215.156H33.75C26.7602 215.156 21.0938 209.49 21.0938 202.5ZM324.844 202.5C324.844 195.51 330.51 189.844 337.5 189.844H371.25C378.24 189.844 383.906 195.51 383.906 202.5C383.906 209.49 378.24 215.156 371.25 215.156H337.5C330.51 215.156 324.844 209.49 324.844 202.5ZM287.305 287.3C292.248 282.358 300.262 282.358 305.205 287.3L342.701 324.802C347.644 329.744 347.642 337.758 342.699 342.701C337.756 347.644 329.743 347.642 324.802 342.699L287.305 305.198C282.363 300.255 282.363 292.243 287.305 287.3ZM117.698 287.302C122.64 292.245 122.64 300.259 117.698 305.201L80.1974 342.701C75.2549 347.644 67.2415 347.644 62.2988 342.701C57.3563 337.758 57.3563 329.744 62.2988 324.803L99.7989 287.302C104.741 282.359 112.755 282.359 117.698 287.302ZM202.5 324.844C209.49 324.844 215.156 330.51 215.156 337.5V371.25C215.156 378.24 209.49 383.906 202.5 383.906C195.51 383.906 189.844 378.24 189.844 371.25V337.5C189.844 330.51 195.51 324.844 202.5 324.844Z" fill="white"/>
</svg>
